<svg width="20" height="20" viewBox="0 0 24 24" fill="none" xmlns="http://www.w3.org/2000/svg">
  <path d="M12 22C12.5523 22 13 21.5523 13 21V19C13 18.4477 12.5523 18 12 18C11.4477 18 11 18.4477 11 19V21C11 21.5523 11.4477 22 12 22Z" fill="#C9DDFF"/>
  <path fill-rule="evenodd" clip-rule="evenodd" d="M12 3C8.13401 3 5 6.13401 5 10C5 11.4253 5.42629 12.7512 6.15939 13.8617C6.05608 14.2188 6 14.6009 6 15C6 16.6569 7.34315 18 9 18H10V16C10 14.8954 10.8954 14 12 14C13.1046 14 14 14.8954 14 16V18H15C16.6569 18 18 16.6569 18 15C18 14.6009 17.9439 14.2188 17.8406 13.8617C18.5737 12.7512 19 11.4253 19 10C19 6.13401 15.866 3 12 3ZM12 5C9.23858 5 7 7.23858 7 10C7 11.2335 7.4472 12.3626 8.18844 13.2387C8.61863 13.747 8.95543 14.3418 9.17637 14.9892C9.24584 15.1928 9.38722 15.3672 9.57567 15.4807C9.76412 15.5942 9.98701 15.6394 10.2045 15.608L10.3333 15.5895C10.741 15.5313 11.1396 15.3562 11.5 15.0805V9C11.5 8.44772 11.9477 8 12.5 8C13.0523 8 13.5 8.44772 13.5 9V15.0805C13.8604 15.3562 14.259 15.5313 14.6667 15.5895L14.7955 15.608C15.013 15.6394 15.2359 15.5942 15.4243 15.4807C15.6128 15.3672 15.7542 15.1928 15.8236 14.9892C16.0446 14.3418 16.3814 13.747 16.8116 13.2387C17.5528 12.3626 18 11.2335 18 10C18 7.23858 15.7614 5 12 5Z" fill="#C9DDFF"/>
</svg>
